# xmcd CD database file
#
# Track frame offsets:
#	150
#	19046
#	34999
#	53118
#	65779
#	80183
#	100753
#	116393
#	132952
#	156297
#	173715
#	194602
#	217278
#	238134
#	253928
#	270650
#	296507
#	317715
#	344851
#	361881
#
# Disc length: 5042 seconds
#
# Revision: 0
# Processed by: cddbd v1.5.2PL0 Copyright (c) Steve Scherf et al.
# Submitted via: CDex 1.51
#
DISCID=4513b014
DTITLE=Various Artist - Jazz for Dinner 5, Den Abend mit Musik geniessen
DYEAR=2016
DGENRE=Jazz
TTITLE0=Her Smile - Till Brönner
TTITLE1=A Crying Shame - Silje Nergaard
TTITLE2=I Want to Be a Popstar - Jamie Cullum
TTITLE3=Das Gefuhl - Annett Louisan
TTITLE4=Barcelona George Ezra
TTITLE5=Hard Work - Ella Henderson
TTITLE6=Es regnet immer auf Sylt - Klaus Hoffmann
TTITLE7=Only Trust Your Heart - Stacey Kent
TTITLE8=Inner City Blues - Klaus Doldiger´s Passport ft. Max Mutzke
TTITLE9=For What It's Worth - lisa Bassrnge
TTITLE10=So Like Candy - Elvis Costello
TTITLE11=Your Place - Muria Zoe
TTITLE12=Blue Gardenia - Branford Marsalis Quartet and Kurt Elling
TTITLE13=Ebbe und Flut [Solo am Klavier] - Anna Depenbusch
TTITLE14=Nightshift - Mario Biondi
TTITLE15=Away Down the River - Alison Krauss
TTITLE16=Stardust - Ulrich Tukur and Die Rhythmus Bays
TTITLE17=Besame Mucho - Lyambiko
TTITLE18=Moon River - Bill Frisell
TTITLE19=Hallelujah - Alexandra Burke
EXTD=YEAR: 2016
EXTT0=
EXTT1=
EXTT2=
EXTT3=
EXTT4=
EXTT5=
EXTT6=
EXTT7=
EXTT8=
EXTT9=
EXTT10=
EXTT11=
EXTT12=
EXTT13=
EXTT14=
EXTT15=
EXTT16=
EXTT17=
EXTT18=
EXTT19=
PLAYORDER=
